<svg xmlns="http://www.w3.org/2000/svg" xmlns:xlink="http://www.w3.org/1999/xlink" width="375" viewBox="0 0 375 375" height="375" version="1.0"><defs><g id="b"><path d="M 23.257812 -24.660156 C 27.613281 -26.980469 29.296875 -31.40625 29.296875 -38.011719 L 29.296875 -41.875 C 29.296875 -51.570312 26.207031 -56.980469 13.980469 -56.980469 L 3.722656 -56.980469 L 3.722656 0 L 10.609375 0 L 10.609375 -22.835938 L 13.980469 -22.835938 C 14.894531 -22.835938 15.808594 -22.835938 16.582031 -22.90625 L 24.730469 0 L 32.039062 0 Z M 10.609375 -50.585938 L 13.980469 -50.585938 C 19.882812 -50.585938 22.414062 -48.691406 22.414062 -42.015625 L 22.414062 -36.957031 C 22.414062 -30.773438 20.65625 -28.527344 13.980469 -28.527344 L 10.609375 -28.527344 Z M 10.609375 -50.585938"/></g><g id="c"><path d="M 14.753906 0.703125 C 23.46875 0.703125 26.628906 -3.863281 26.628906 -12.085938 L 26.628906 -27.683594 C 26.628906 -35.832031 23.398438 -40.398438 14.753906 -40.398438 C 6.042969 -40.398438 2.808594 -35.832031 2.808594 -27.683594 L 2.808594 -12.085938 C 2.808594 -3.863281 6.042969 0.703125 14.753906 0.703125 Z M 14.753906 -5.410156 C 11.03125 -5.410156 9.695312 -7.730469 9.695312 -11.242188 L 9.695312 -28.457031 C 9.695312 -32.039062 11.03125 -34.355469 14.753906 -34.355469 C 18.40625 -34.355469 19.742188 -32.109375 19.742188 -28.457031 L 19.742188 -11.242188 C 19.742188 -7.660156 18.40625 -5.410156 14.753906 -5.410156 Z M 14.753906 -5.410156"/></g><g id="d"><path d="M 11.59375 0.773438 C 19.53125 0.773438 24.238281 -2.878906 24.238281 -10.75 C 24.238281 -17.425781 21.078125 -19.882812 15.667969 -22.34375 L 13.417969 -23.328125 C 10.328125 -24.800781 9.203125 -26.417969 9.203125 -29.226562 C 9.203125 -32.320312 11.382812 -34.074219 14.683594 -34.074219 C 17.214844 -34.074219 19.390625 -33.585938 21.992188 -32.320312 L 22.625 -38.363281 C 19.8125 -39.625 17.144531 -40.1875 14.261719 -40.1875 C 7.238281 -40.1875 2.53125 -36.746094 2.53125 -29.15625 C 2.53125 -23.328125 4.777344 -20.09375 9.765625 -17.777344 L 12.226562 -16.652344 C 15.597656 -15.105469 17.566406 -13.769531 17.566406 -10.46875 C 17.566406 -6.816406 14.964844 -5.339844 10.820312 -5.339844 C 8.21875 -5.339844 5.199219 -5.972656 3.019531 -7.027344 L 2.320312 -0.984375 C 5.058594 0.140625 8.007812 0.773438 11.59375 0.773438 Z M 11.59375 0.773438"/></g><g id="f"><path d="M 15.808594 0.703125 C 19.742188 0.703125 22.765625 0.0703125 25.644531 -1.195312 L 25.011719 -7.449219 C 22.695312 -6.324219 20.65625 -5.832031 17.144531 -5.832031 C 10.890625 -5.832031 9.554688 -9.625 9.554688 -14.964844 L 9.554688 -42.226562 C 9.554688 -47.707031 11.03125 -51.359375 17.214844 -51.359375 C 19.601562 -51.359375 22.203125 -50.796875 24.730469 -49.742188 L 25.363281 -55.996094 C 21.992188 -57.332031 18.828125 -57.894531 15.949219 -57.894531 C 7.800781 -57.894531 2.667969 -53.539062 2.667969 -42.367188 L 2.667969 -14.191406 C 2.667969 -3.371094 7.449219 0.703125 15.808594 0.703125 Z M 15.808594 0.703125"/></g><g id="g"><path d="M 13.277344 0.703125 C 21.21875 0.703125 26.628906 -4.074219 26.628906 -13.277344 L 26.628906 -14.402344 C 26.628906 -21.5 24.097656 -25.925781 16.933594 -31.476562 C 10.75 -36.324219 8.710938 -38.644531 8.710938 -43.070312 L 8.710938 -44.195312 C 8.710938 -48.410156 11.242188 -51.359375 16.722656 -51.359375 C 19.53125 -51.359375 22.273438 -50.515625 24.730469 -49.464844 L 25.433594 -55.785156 C 22.414062 -57.050781 19.039062 -57.753906 15.527344 -57.753906 C 7.027344 -57.753906 1.96875 -53.046875 1.96875 -44.683594 L 1.96875 -43.703125 C 1.96875 -36.675781 4.496094 -31.898438 11.804688 -26.628906 C 18.058594 -22.132812 19.8125 -19.460938 19.8125 -14.964844 L 19.8125 -13.839844 C 19.8125 -8.851562 17.074219 -5.691406 12.085938 -5.691406 C 8.5 -5.691406 5.480469 -6.675781 2.949219 -8.359375 L 2.25 -2.039062 C 5.480469 -0.28125 8.992188 0.703125 13.277344 0.703125 Z M 13.277344 0.703125"/></g><g id="e"><path d="M 19.882812 -6.394531 C 18.335938 -5.832031 16.722656 -5.550781 15.316406 -5.550781 C 12.085938 -5.550781 10.046875 -6.816406 10.046875 -10.257812 L 10.046875 -38.996094 L 3.160156 -38.996094 L 3.160156 -10.117188 C 3.160156 -3.089844 6.464844 0.703125 14.824219 0.703125 C 16.300781 0.703125 17.988281 0.5625 19.882812 0.28125 L 19.882812 2.738281 C 19.882812 7.308594 18.6875 9.554688 13.558594 9.554688 C 10.609375 9.554688 7.167969 8.78125 4.566406 7.378906 L 6.113281 13.980469 C 7.589844 15.035156 12.015625 15.949219 14.824219 15.949219 C 23.117188 15.949219 26.769531 12.15625 26.769531 3.652344 L 26.769531 -38.996094 L 19.882812 -38.996094 Z M 19.882812 -6.394531"/></g><clipPath id="a"><path d="M 11 132 L 134 132 L 134 246.066406 L 11 246.066406 Z M 11 132"/></clipPath></defs><path fill="#FFC4D4" d="M 125.832031 194.644531 L 97.386719 148.453125 C 90.15625 136.714844 75.691406 131.449219 62.789062 136.214844 C 62.382812 136.363281 61.980469 136.523438 61.585938 136.691406 C 57.3125 138.488281 53.347656 141.367188 50.101562 145.386719 C 49.894531 145.640625 49.691406 145.898438 49.488281 146.164062 C 48.964844 146.859375 48.484375 147.589844 48.03125 148.335938 L 19.800781 194.644531 C 6.816406 214.652344 17.441406 241.273438 40.917969 243.828125 C 40.964844 243.832031 41.582031 243.835938 42.5625 243.839844 L 103.914062 243.839844 C 104.183594 243.839844 104.449219 243.855469 104.714844 243.828125 C 128.175781 241.386719 138.8125 214.652344 125.832031 194.644531 Z M 125.832031 194.644531"/><path fill="#534494" d="M 75.347656 148.453125 L 103.796875 194.644531 C 116.777344 214.652344 106.140625 241.386719 82.679688 243.828125 C 82.585938 243.835938 82.488281 243.835938 82.394531 243.839844 L 103.914062 243.839844 C 104.183594 243.839844 104.449219 243.855469 104.714844 243.828125 C 128.175781 241.386719 138.8125 214.652344 125.832031 194.644531 L 97.386719 148.453125 C 90.15625 136.714844 75.691406 131.449219 62.789062 136.214844 C 62.382812 136.363281 61.980469 136.523438 61.585938 136.691406 C 67.136719 139.003906 72.015625 143.039062 75.347656 148.453125 Z M 75.347656 148.453125"/><path fill="#FF2768" d="M 50.101562 145.386719 C 50.882812 146.351562 51.605469 147.375 52.269531 148.453125 L 80.714844 194.644531 C 93.699219 214.652344 83.0625 241.386719 59.597656 243.828125 C 59.503906 243.835938 59.410156 243.835938 59.316406 243.839844 L 82.398438 243.839844 C 82.492188 243.835938 82.585938 243.835938 82.683594 243.828125 C 106.144531 241.386719 116.78125 214.652344 103.796875 194.644531 L 75.347656 148.453125 C 72.015625 143.039062 67.136719 139.003906 61.582031 136.691406 C 57.3125 138.492188 53.347656 141.367188 50.101562 145.386719 Z M 50.101562 145.386719"/><g clip-path="url(#a)"><path fill="#35245C" d="M 133.621094 213.285156 C 133.621094 218.449219 132.492188 223.535156 130.308594 228.121094 C 125.464844 238.316406 116.21875 244.835938 104.941406 246.011719 C 104.617188 246.042969 104.328125 246.042969 104.09375 246.035156 C 104.03125 246.035156 103.96875 246.035156 103.910156 246.035156 L 58.835938 246.035156 C 41.039062 246.046875 40.855469 246.027344 40.675781 246.007812 C 29.359375 244.777344 20.097656 238.210938 15.273438 227.996094 C 10.074219 216.988281 11.074219 204.082031 17.945312 193.46875 L 46.164062 147.191406 C 46.710938 146.289062 47.230469 145.523438 47.746094 144.839844 C 51.460938 139.925781 56.402344 136.230469 62.03125 134.15625 C 75.777344 129.078125 91.429688 134.609375 99.246094 147.296875 L 127.679688 193.46875 C 131.132812 198.792969 133.160156 204.878906 133.550781 211.0625 C 133.597656 211.800781 133.621094 212.542969 133.621094 213.285156 Z M 41.070312 241.636719 C 41.878906 241.648438 48.464844 241.652344 58.835938 241.640625 L 103.914062 241.640625 C 103.996094 241.640625 104.082031 241.644531 104.164062 241.644531 C 104.285156 241.648438 104.425781 241.648438 104.488281 241.640625 C 114.214844 240.628906 122.1875 235.011719 126.359375 226.230469 C 128.304688 222.132812 129.269531 217.726562 129.269531 213.300781 C 129.269531 207.285156 127.492188 201.234375 123.996094 195.839844 L 123.96875 195.796875 L 95.523438 149.609375 C 88.796875 138.683594 75.34375 133.917969 63.539062 138.277344 C 58.695312 140.066406 54.441406 143.253906 51.230469 147.492188 C 50.804688 148.058594 50.363281 148.710938 49.894531 149.484375 L 21.632812 195.839844 C 15.582031 205.167969 14.683594 216.488281 19.230469 226.113281 C 23.378906 234.898438 31.335938 240.550781 41.070312 241.636719 Z M 41.121094 241.640625 C 41.128906 241.640625 41.140625 241.640625 41.152344 241.640625 C 41.144531 241.640625 41.136719 241.640625 41.121094 241.640625 Z M 41.121094 241.640625"/></g><g fill="#FF2768"><use x="151.453" y="232.356" xmlns:xlink="http://www.w3.org/1999/xlink" xlink:href="#b" xlink:type="simple" xlink:actuate="onLoad" xlink:show="embed"/></g><g fill="#FF2768"><use x="183.137" y="232.356" xmlns:xlink="http://www.w3.org/1999/xlink" xlink:href="#c" xlink:type="simple" xlink:actuate="onLoad" xlink:show="embed"/></g><g fill="#FF2768"><use x="211.168" y="232.356" xmlns:xlink="http://www.w3.org/1999/xlink" xlink:href="#d" xlink:type="simple" xlink:actuate="onLoad" xlink:show="embed"/></g><g fill="#FF2768"><use x="236.319" y="232.356" xmlns:xlink="http://www.w3.org/1999/xlink" xlink:href="#e" xlink:type="simple" xlink:actuate="onLoad" xlink:show="embed"/></g><g fill="#FF2768"><use x="265.544" y="232.356" xmlns:xlink="http://www.w3.org/1999/xlink" xlink:href="#f" xlink:type="simple" xlink:actuate="onLoad" xlink:show="embed"/></g><g fill="#FF2768"><use x="291.608" y="232.356" xmlns:xlink="http://www.w3.org/1999/xlink" xlink:href="#g" xlink:type="simple" xlink:actuate="onLoad" xlink:show="embed"/></g><g fill="#FF2768"><use x="318.937" y="232.356" xmlns:xlink="http://www.w3.org/1999/xlink" xlink:href="#g" xlink:type="simple" xlink:actuate="onLoad" xlink:show="embed"/></g><g fill="#FF2768"><use x="248.859" y="298.356" xmlns:xlink="http://www.w3.org/1999/xlink" xlink:href="#h" xlink:type="simple" xlink:actuate="onLoad" xlink:show="embed"/></g></svg>